<?xml version="1.0" standalone="no"?>
<!DOCTYPE svg PUBLIC "-//W3C//DTD SVG 20010904//EN"
 "http://www.w3.org/TR/2001/REC-SVG-20010904/DTD/svg10.dtd">
<svg version="1.0" xmlns="http://www.w3.org/2000/svg"
 width="1023.000000pt" height="1023.000000pt" viewBox="0 0 1023.000000 1023.000000"
 preserveAspectRatio="xMidYMid meet">
<metadata>
Created by potrace 1.14, written by Peter Selinger 2001-2017
</metadata>
<g transform="translate(0.000000,1023.000000) scale(0.100000,-0.100000)"
fill="#000000" stroke="none">
<path d="M5087 10056 c-9 -13 -22 -29 -29 -37 -24 -25 -103 -133 -135 -184
-89 -145 -173 -356 -198 -500 -5 -28 -16 -113 -21 -155 -5 -40 -4 -321 1 -425
2 -38 6 -131 9 -205 3 -74 8 -162 11 -195 4 -57 10 -153 20 -330 3 -44 7 -109
10 -145 5 -67 11 -154 19 -275 3 -38 8 -119 11 -180 4 -60 8 -137 10 -170 12
-181 19 -441 20 -685 0 -280 -5 -396 -25 -530 -6 -41 -13 -91 -15 -110 -8 -73
-55 -306 -90 -445 -14 -55 -27 -107 -29 -116 -32 -126 -136 -440 -228 -689
-72 -195 -170 -404 -319 -688 -49 -92 -39 -88 -154 -62 -25 6 -62 13 -83 16
-20 3 -40 8 -43 10 -3 2 -21 6 -39 9 -135 24 -281 165 -319 310 -64 244 95
499 338 543 53 10 89 9 198 -3 41 -5 52 -3 49 7 -3 7 -7 40 -10 73 -4 33 -8
71 -11 85 -2 14 -6 48 -9 75 -11 106 -17 161 -21 190 -7 44 -31 243 -39 320
-4 35 -13 109 -26 215 -14 113 -19 160 -25 215 -6 54 -13 109 -20 165 -9 69
-15 116 -20 173 -4 32 -8 67 -10 78 -2 11 -7 50 -11 87 -3 36 -7 74 -9 83 -2
10 -6 46 -10 81 -3 35 -8 70 -10 78 -2 8 -6 47 -10 85 -3 39 -8 81 -10 95 -2
14 -7 50 -10 80 -5 52 -9 72 -20 130 -3 14 -8 43 -11 65 -10 66 -62 263 -104
386 -88 264 -204 499 -369 749 -64 97 -51 80 -173 230 -100 124 -269 298 -387
399 -104 89 -313 240 -396 287 -11 6 -60 35 -110 63 l-90 51 -3 -3607 c-1
-1983 0 -3609 3 -3612 3 -3 372 -5 820 -6 447 0 816 -2 819 -5 3 -3 8 -20 11
-38 14 -81 66 -260 110 -377 179 -482 503 -913 925 -1234 103 -78 184 -174
277 -329 l19 -32 24 42 c80 145 159 232 345 380 114 91 287 258 372 359 274
323 493 757 578 1145 10 43 20 81 22 84 3 3 370 6 816 6 447 1 815 2 820 3 7
1 11 7221 4 7221 -3 0 -85 -46 -206 -116 -53 -30 -239 -162 -316 -223 -224
-180 -445 -417 -616 -661 -169 -240 -320 -553 -413 -852 -40 -126 -91 -349
-101 -438 -3 -30 -8 -62 -10 -70 -2 -8 -6 -42 -10 -75 -3 -33 -8 -76 -10 -95
-2 -19 -6 -53 -9 -75 -3 -22 -8 -65 -11 -95 -3 -30 -12 -107 -20 -170 -8 -63
-17 -137 -20 -165 -3 -27 -10 -84 -15 -125 -5 -41 -12 -97 -15 -125 -3 -27 -8
-66 -11 -85 -2 -19 -7 -57 -9 -85 -5 -46 -11 -91 -20 -155 -2 -14 -6 -52 -10
-85 -3 -33 -7 -71 -10 -85 -2 -14 -7 -52 -10 -85 -3 -33 -7 -71 -10 -85 -2
-14 -7 -50 -10 -80 -3 -30 -8 -71 -10 -90 -2 -19 -7 -57 -10 -85 -3 -27 -8
-66 -11 -85 -10 -86 -13 -109 -19 -165 -3 -33 -9 -68 -12 -78 -4 -17 0 -18 54
-11 97 11 164 11 212 -2 243 -63 387 -311 318 -549 -13 -45 -63 -132 -97 -169
-78 -85 -172 -127 -355 -160 -16 -3 -53 -10 -83 -17 -29 -6 -55 -9 -56 -7 -33
40 -282 548 -321 653 -20 55 -41 109 -46 120 -20 45 -126 355 -172 505 -32
104 -88 310 -101 371 -41 196 -66 322 -70 357 -3 23 -9 61 -12 85 -23 163 -29
288 -29 582 1 267 6 460 20 680 3 39 7 113 10 165 6 110 14 231 20 310 2 30 7
96 10 145 6 101 12 195 20 305 10 150 21 366 30 570 5 106 5 402 0 437 -33
231 -75 368 -171 553 -63 121 -217 330 -243 330 -5 0 -16 -11 -24 -24z m-2269
-2085 c67 -102 167 -287 217 -403 59 -139 133 -387 155 -521 5 -34 12 -71 14
-82 2 -11 7 -47 10 -80 4 -33 9 -76 11 -95 7 -57 15 -122 21 -170 2 -25 9 -79
14 -120 5 -41 12 -100 15 -130 4 -30 8 -66 10 -80 2 -14 6 -50 10 -80 6 -57
32 -278 40 -340 3 -19 7 -57 10 -85 5 -49 13 -106 20 -155 2 -14 6 -52 10 -85
3 -33 8 -73 10 -90 2 -16 7 -59 10 -95 l7 -65 -79 -52 c-173 -114 -337 -322
-393 -498 -7 -22 -16 -45 -21 -50 -4 -6 -46 -10 -96 -10 l-88 1 -1 1707 c-1
995 2 1704 7 1701 5 -3 44 -58 87 -123z m4682 -3281 c-16 -10 -169 -5 -179 6
-5 5 -14 27 -21 49 -19 61 -93 198 -144 263 -67 88 -161 176 -254 238 -45 31
-80 59 -78 62 2 4 7 32 10 62 4 30 9 71 11 90 3 19 7 54 10 78 3 23 7 59 10
80 3 20 7 60 10 87 3 28 7 64 9 80 2 17 7 57 11 90 3 33 8 71 10 85 2 14 9 70
15 125 6 55 13 111 15 125 2 14 6 52 10 85 3 33 8 67 10 75 2 8 6 46 10 83 3
37 8 76 10 85 1 9 6 49 9 87 4 39 9 81 11 95 2 14 9 66 15 115 57 475 198 851
452 1210 l43 60 3 -1704 c1 -1148 -1 -1707 -8 -1711z m-2322 -85 c93 -249 245
-578 369 -799 19 -33 24 -51 16 -53 -6 -2 -48 -22 -94 -44 -109 -53 -199 -114
-284 -194 -39 -36 -70 -65 -70 -65 0 0 -26 25 -58 54 -93 89 -179 148 -291
201 -58 28 -106 53 -106 57 0 4 14 30 30 58 34 57 146 279 208 410 22 47 72
168 112 270 40 102 76 194 81 205 4 11 11 30 14 43 4 13 8 22 10 20 1 -2 30
-75 63 -163z m-2270 -519 c7 -4 12 -14 12 -23 0 -26 76 -179 126 -254 84 -125
224 -250 364 -326 100 -54 187 -82 360 -119 13 -3 26 -7 28 -9 2 -2 -4 -39
-12 -82 -33 -159 -32 -157 -45 -263 -12 -92 -19 -182 -20 -245 l-1 -40 -467 2
c-258 1 -482 2 -499 2 l-32 1 0 678 c0 372 1 679 3 682 5 8 169 5 183 -4z
m4600 -674 l2 -682 -32 -1 c-171 -2 -959 -1 -962 2 -2 2 -7 47 -10 99 -7 98
-13 159 -22 220 -3 19 -8 52 -10 72 -2 20 -13 75 -24 123 -11 47 -20 92 -20
99 0 8 16 17 38 21 172 36 277 74 392 141 64 37 144 99 203 156 92 90 203 265
241 383 l16 50 92 0 93 0 3 -683z m-2998 -239 c143 -69 262 -221 294 -373 7
-36 12 -66 10 -68 -1 -2 -114 -4 -251 -4 l-248 -1 1 64 c2 64 11 171 20 212 2
12 7 36 10 52 3 17 12 61 21 98 15 67 16 68 41 63 15 -4 61 -23 102 -43z
m1354 -20 c28 -128 43 -232 51 -360 l4 -63 -67 -1 c-166 -2 -434 0 -437 3 -1
2 4 31 11 65 27 130 124 273 234 343 50 32 154 79 177 80 6 0 18 -30 27 -67z
m-1044 -1435 c0 -272 -3 -418 -10 -418 -5 0 -10 4 -10 8 0 5 -9 20 -21 33 -73
84 -189 269 -260 417 -49 103 -142 359 -134 372 2 3 101 6 219 6 l216 0 0
-418z m1025 403 c-2 -9 -15 -52 -29 -96 -31 -103 -87 -238 -143 -345 -53 -99
-177 -287 -227 -345 l-35 -40 -1 416 c0 229 2 418 5 420 2 3 101 5 220 5 190
0 215 -2 210 -15z"/>
</g>
</svg>
